<svg width="14" height="14" viewBox="0 0 14 14" fill="none" xmlns="http://www.w3.org/2000/svg">
<path d="M12.1875 0.228516C12.6855 0.228516 13.125 0.667969 13.125 1.19531V12.416C13.125 12.9434 12.6855 13.3535 12.1875 13.3535H0.908203C0.410156 13.3535 0 12.9434 0 12.416V1.19531C0 0.667969 0.410156 0.228516 0.908203 0.228516H12.1875ZM3.95508 11.4785V5.23828H2.02148V11.4785H3.95508ZM2.98828 4.35938C3.60352 4.35938 4.10156 3.86133 4.10156 3.24609C4.10156 2.63086 3.60352 2.10352 2.98828 2.10352C2.34375 2.10352 1.8457 2.63086 1.8457 3.24609C1.8457 3.86133 2.34375 4.35938 2.98828 4.35938ZM11.25 11.4785V8.05078C11.25 6.38086 10.8691 5.0625 8.90625 5.0625C7.96875 5.0625 7.32422 5.58984 7.06055 6.08789H7.03125V5.23828H5.18555V11.4785H7.11914V8.40234C7.11914 7.58203 7.26562 6.79102 8.29102 6.79102C9.28711 6.79102 9.28711 7.72852 9.28711 8.43164V11.4785H11.25Z" fill="#1F242C"/>
</svg>
