<svg width="15" height="14" viewBox="0 0 15 14" fill="none" xmlns="http://www.w3.org/2000/svg">
<path d="M7.5625 3.42188C9.4082 3.42188 10.9316 4.94531 10.9316 6.79102C10.9316 8.66602 9.4082 10.1602 7.5625 10.1602C5.6875 10.1602 4.19336 8.66602 4.19336 6.79102C4.19336 4.94531 5.6875 3.42188 7.5625 3.42188ZM7.5625 8.98828C8.76367 8.98828 9.73047 8.02148 9.73047 6.79102C9.73047 5.58984 8.76367 4.62305 7.5625 4.62305C6.33203 4.62305 5.36523 5.58984 5.36523 6.79102C5.36523 8.02148 6.36133 8.98828 7.5625 8.98828ZM11.8398 3.30469C11.8398 2.86523 11.4883 2.51367 11.0488 2.51367C10.6094 2.51367 10.2578 2.86523 10.2578 3.30469C10.2578 3.74414 10.6094 4.0957 11.0488 4.0957C11.4883 4.0957 11.8398 3.74414 11.8398 3.30469ZM14.0664 4.0957C14.125 5.17969 14.125 8.43164 14.0664 9.51562C14.0078 10.5703 13.7734 11.4785 13.0117 12.2695C12.25 13.0312 11.3125 13.2656 10.2578 13.3242C9.17383 13.3828 5.92188 13.3828 4.83789 13.3242C3.7832 13.2656 2.875 13.0312 2.08398 12.2695C1.32227 11.4785 1.08789 10.5703 1.0293 9.51562C0.970703 8.43164 0.970703 5.17969 1.0293 4.0957C1.08789 3.04102 1.32227 2.10352 2.08398 1.3418C2.875 0.580078 3.7832 0.345703 4.83789 0.287109C5.92188 0.228516 9.17383 0.228516 10.2578 0.287109C11.3125 0.345703 12.25 0.580078 13.0117 1.3418C13.7734 2.10352 14.0078 3.04102 14.0664 4.0957ZM12.6602 10.6582C13.0117 9.80859 12.9238 7.75781 12.9238 6.79102C12.9238 5.85352 13.0117 3.80273 12.6602 2.92383C12.4258 2.36719 11.9863 1.89844 11.4297 1.69336C10.5508 1.3418 8.5 1.42969 7.5625 1.42969C6.5957 1.42969 4.54492 1.3418 3.69531 1.69336C3.10938 1.92773 2.66992 2.36719 2.43555 2.92383C2.08398 3.80273 2.17188 5.85352 2.17188 6.79102C2.17188 7.75781 2.08398 9.80859 2.43555 10.6582C2.66992 11.2441 3.10938 11.6836 3.69531 11.918C4.54492 12.2695 6.5957 12.1816 7.5625 12.1816C8.5 12.1816 10.5508 12.2695 11.4297 11.918C11.9863 11.6836 12.4551 11.2441 12.6602 10.6582Z" fill="#1F242C"/>
</svg>
