<svg width="15" height="13" viewBox="0 0 15 13" fill="none" xmlns="http://www.w3.org/2000/svg">
<path d="M13.4473 3.74414C13.4473 3.89062 13.4473 4.00781 13.4473 4.1543C13.4473 8.22656 10.3711 12.8848 4.7168 12.8848C2.95898 12.8848 1.34766 12.3867 0 11.5078C0.234375 11.5371 0.46875 11.5664 0.732422 11.5664C2.16797 11.5664 3.48633 11.0684 4.54102 10.248C3.19336 10.2188 2.05078 9.33984 1.66992 8.10938C1.875 8.13867 2.05078 8.16797 2.25586 8.16797C2.51953 8.16797 2.8125 8.10938 3.04688 8.05078C1.64062 7.75781 0.585938 6.52734 0.585938 5.0332V5.00391C0.996094 5.23828 1.49414 5.35547 1.99219 5.38477C1.14258 4.82812 0.615234 3.89062 0.615234 2.83594C0.615234 2.25 0.761719 1.72266 1.02539 1.2832C2.54883 3.12891 4.83398 4.35938 7.38281 4.50586C7.32422 4.27148 7.29492 4.03711 7.29492 3.80273C7.29492 2.10352 8.67188 0.726562 10.3711 0.726562C11.25 0.726562 12.041 1.07812 12.627 1.69336C13.3008 1.54688 13.9746 1.2832 14.5605 0.931641C14.3262 1.66406 13.8574 2.25 13.2129 2.63086C13.8281 2.57227 14.4434 2.39648 14.9707 2.16211C14.5605 2.77734 14.0332 3.30469 13.4473 3.74414Z" fill="#1F242C"/>
</svg>
